HIERARCHY
ROOT Hips
{
  OFFSET 91.2244 90.026 26.1335
  CHANNELS 6 Xposition Yposition Zposition Zrotation Xrotation Yrotation
  JOINT RightUpLeg
  {
    OFFSET -9.26543 -1.55198 -0.00276407
    CHANNELS 3 Zrotation Xrotation Yrotation
    JOINT RightLeg
    {
      OFFSET 0.00706465 -41.889 0.0798854
      CHANNELS 3 Zrotation Xrotation Yrotation
      JOINT RightFoot
      {
        OFFSET -1.51766 -41.6901 -0.263239
        CHANNELS 3 Zrotation Xrotation Yrotation
        End Site
        {
          OFFSET 0 -7.69 17.5
        }
      }
    }
  }
  JOINT LeftUpLeg
  {
    OFFSET 9.33035 -1.6331 0.002402
    CHANNELS 3 Zrotation Xrotation Yrotation
    JOINT LeftLeg
    {
      OFFSET 0.0774 -41.8788 0.006528
      CHANNELS 3 Zrotation Xrotation Yrotation
      JOINT LeftFoot
      {
        OFFSET 0.406189 -42.2791 -0.67832
        CHANNELS 3 Zrotation Xrotation Yrotation
        End Site
        {
          OFFSET 0 -7.69 17.5
        }
      }
    }
  }
  JOINT Spine
  {
    OFFSET 0.0210118 14.3125 0.030377
    CHANNELS 3 Zrotation Xrotation Yrotation
    JOINT Spine1
    {
      OFFSET -2.02627e-05 9.71981 0.0121962
      CHANNELS 3 Zrotation Xrotation Yrotation
      JOINT Spine2
      {
        OFFSET 0.023812 10.122 0.0180119
        CHANNELS 3 Zrotation Xrotation Yrotation
        JOINT Spine3
        {
          OFFSET 0.00443321 9.71861 0.0143853
          CHANNELS 3 Zrotation Xrotation Yrotation
          JOINT Neck
          {
            OFFSET -0.025003 10.3767 0.0233355
            CHANNELS 3 Zrotation Xrotation Yrotation
            JOINT Head
            {
              OFFSET -0.00975384 9.4764 0.045578
              CHANNELS 3 Zrotation Xrotation Yrotation
              End Site
              {
                OFFSET 0 15.95 0
              }
            }
          }
          JOINT RightShoulder
          {
            OFFSET -3.18407 6.9358 0.0313291
            CHANNELS 3 Zrotation Xrotation Yrotation
            JOINT RightArm
            {
              OFFSET -12.7601 0.0147069 0.0234973
              CHANNELS 3 Zrotation Xrotation Yrotation
              JOINT RightForeArm
              {
                OFFSET -26.4708 -0.032683 0.042111
                CHANNELS 3 Zrotation Xrotation Yrotation
                JOINT RightHand
                {
                  OFFSET -26.0234 -0.0283521 0.00388791
                  CHANNELS 3 Zrotation Xrotation Yrotation
                  JOINT RightHandThumb1
                  {
                    OFFSET -2.48905 0.190105 3.12053
                    CHANNELS 3 Zrotation Xrotation Yrotation
                    JOINT RightHandThumb2
                    {
                      OFFSET -3.68274 0 0
                      CHANNELS 3 Zrotation Xrotation Yrotation
                      JOINT RightHandThumb3
                      {
                        OFFSET -2.55832 0 0
                        CHANNELS 3 Zrotation Xrotation Yrotation
                        End Site
                        {
                          OFFSET -2.194 0 0
                        }
                      }
                    }
                  }
                  JOINT RightInHandIndex
                  {
                    OFFSET -3.22368 0.508421 1.97842
                    CHANNELS 3 Zrotation Xrotation Yrotation
                    JOINT RightHandIndex1
                    {
                      OFFSET -5.21684 -0.091368 0.999158
                      CHANNELS 3 Zrotation Xrotation Yrotation
                      JOINT RightHandIndex2
                      {
                        OFFSET -3.61937 0 0
                        CHANNELS 3 Zrotation Xrotation Yrotation
                        JOINT RightHandIndex3
                        {
                          OFFSET -2.0521 0 0
                          CHANNELS 3 Zrotation Xrotation Yrotation
                          End Site
                          {
                            OFFSET -1.805 0 0
                          }
                        }
                      }
                    }
                  }
                  JOINT RightInHandMiddle
                  {
                    OFFSET -3.38211 0.517263 0.756737
                    CHANNELS 3 Zrotation Xrotation Yrotation
                    JOINT RightHandMiddle1
                    {
                      OFFSET -5.17411 -0.084 0.313895
                      CHANNELS 3 Zrotation Xrotation Yrotation
                      JOINT RightHandMiddle2
                      {
                        OFFSET -3.94947 0 0
                        CHANNELS 3 Zrotation Xrotation Yrotation
                        JOINT RightHandMiddle3
                        {
                          OFFSET -2.47579 0 0
                          CHANNELS 3 Zrotation Xrotation Yrotation
                          End Site
                          {
                            OFFSET -1.975 0 0
                          }
                        }
                      }
                    }
                  }
                  JOINT RightInHandRing
                  {
                    OFFSET -3.36516 0.537895 -0.128947
                    CHANNELS 3 Zrotation Xrotation Yrotation
                    JOINT RightHandRing1
                    {
                      OFFSET -4.63474 -0.022105 -0.478947
                      CHANNELS 3 Zrotation Xrotation Yrotation
                      JOINT RightHandRing2
                      {
                        OFFSET -3.44238 0 0
                        CHANNELS 3 Zrotation Xrotation Yrotation
                        JOINT RightHandRing3
                        {
                          OFFSET -2.3881 0 0
                          CHANNELS 3 Zrotation Xrotation Yrotation
                          End Site
                          {
                            OFFSET -1.857 0 0
                          }
                        }
                      }
                    }
                  }
                  JOINT RightInHandPinky
                  {
                    OFFSET -3.16105 0.469368 -1.20179
                    CHANNELS 3 Zrotation Xrotation Yrotation
                    JOINT RightHandPinky1
                    {
                      OFFSET -4.14105 -0.022105 -1.09053
                      CHANNELS 3 Zrotation Xrotation Yrotation
                      JOINT RightHandPinky2
                      {
                        OFFSET -2.75653 0 0
                        CHANNELS 3 Zrotation Xrotation Yrotation
                        JOINT RightHandPinky3
                        {
                          OFFSET -1.74189 0 0
                          CHANNELS 3 Zrotation Xrotation Yrotation
                          End Site
                          {
                            OFFSET -1.645 0 0
                          }
                        }
                      }
                    }
                  }
                }
              }
            }
          }
          JOINT LeftShoulder
          {
            OFFSET 3.21192 6.92101 0.01407
            CHANNELS 3 Zrotation Xrotation Yrotation
            JOINT LeftArm
            {
              OFFSET 12.7303 -0.00466279 0.011464
              CHANNELS 3 Zrotation Xrotation Yrotation
              JOINT LeftForeArm
              {
                OFFSET 26.497 -0.127446 0.0273404
                CHANNELS 3 Zrotation Xrotation Yrotation
                JOINT LeftHand
                {
                  OFFSET 26.0093 -0.0453415 -0.0774742
                  CHANNELS 3 Zrotation Xrotation Yrotation
                  JOINT LeftHandThumb1
                  {
                    OFFSET 2.48905 0.190105 3.12053
                    CHANNELS 3 Zrotation Xrotation Yrotation
                    JOINT LeftHandThumb2
                    {
                      OFFSET 3.68274 0 0
                      CHANNELS 3 Zrotation Xrotation Yrotation
                      JOINT LeftHandThumb3
                      {
                        OFFSET 2.55832 0 0
                        CHANNELS 3 Zrotation Xrotation Yrotation
                        End Site
                        {
                          OFFSET 2.194 0 0
                        }
                      }
                    }
                  }
                  JOINT LeftInHandIndex
                  {
                    OFFSET 3.22368 0.508421 1.97842
                    CHANNELS 3 Zrotation Xrotation Yrotation
                    JOINT LeftHandIndex1
                    {
                      OFFSET 5.21684 -0.091368 0.999158
                      CHANNELS 3 Zrotation Xrotation Yrotation
                      JOINT LeftHandIndex2
                      {
                        OFFSET 3.61937 0 0
                        CHANNELS 3 Zrotation Xrotation Yrotation
                        JOINT LeftHandIndex3
                        {
                          OFFSET 2.0521 0 0
                          CHANNELS 3 Zrotation Xrotation Yrotation
                          End Site
                          {
                            OFFSET 1.805 0 0
                          }
                        }
                      }
                    }
                  }
                  JOINT LeftInHandMiddle
                  {
                    OFFSET 3.38211 0.517263 0.756737
                    CHANNELS 3 Zrotation Xrotation Yrotation
                    JOINT LeftHandMiddle1
                    {
                      OFFSET 5.17411 -0.084 0.313895
                      CHANNELS 3 Zrotation Xrotation Yrotation
                      JOINT LeftHandMiddle2
                      {
                        OFFSET 3.94947 0 0
                        CHANNELS 3 Zrotation Xrotation Yrotation
                        JOINT LeftHandMiddle3
                        {
                          OFFSET 2.47579 0 0
                          CHANNELS 3 Zrotation Xrotation Yrotation
                          End Site
                          {
                            OFFSET 1.975 0 0
                          }
                        }
                      }
                    }
                  }
                  JOINT LeftInHandRing
                  {
                    OFFSET 3.36516 0.537895 -0.128947
                    CHANNELS 3 Zrotation Xrotation Yrotation
                    JOINT LeftHandRing1
                    {
                      OFFSET 4.63474 -0.022105 -0.478947
                      CHANNELS 3 Zrotation Xrotation Yrotation
                      JOINT LeftHandRing2
                      {
                        OFFSET 3.44238 0 0
                        CHANNELS 3 Zrotation Xrotation Yrotation
                        JOINT LeftHandRing3
                        {
                          OFFSET 2.3881 0 0
                          CHANNELS 3 Zrotation Xrotation Yrotation
                          End Site
                          {
                            OFFSET 1.857 0 0
                          }
                        }
                      }
                    }
                  }
                  JOINT LeftInHandPinky
                  {
                    OFFSET 3.16105 0.469368 -1.20179
                    CHANNELS 3 Zrotation Xrotation Yrotation
                    JOINT LeftHandPinky1
                    {
                      OFFSET 4.14105 -0.022105 -1.09053
                      CHANNELS 3 Zrotation Xrotation Yrotation
                      JOINT LeftHandPinky2
                      {
                        OFFSET 2.75653 0 0
                        CHANNELS 3 Zrotation Xrotation Yrotation
                        JOINT LeftHandPinky3
                        {
                          OFFSET 1.74189 0 0
                          CHANNELS 3 Zrotation Xrotation Yrotation
                          End Site
                          {
                            OFFSET 1.645 0 0
                          }
                        }
                      }
                    }
                  }
                }
              }
            }
          }
        }
      }
    }
  }
}
MOTION
Frames: 3
Frame Time: 0.00833333
1.597164900000000216e+03 8.978510000000001412e+01 2.076820000000000022e+01 2.068560000000000088e+01 -2.392160000000000153e+01 -1.764670000000000130e+02 2.528849999999999909e+01 -4.651640000000000441e+01 2.491509999999999891e+01 1.876130000000000020e-01 1.243030000000000079e+01 1.607610000000000383e+01 9.474539999999999296e+00 8.072580000000002087e+00 5.449890000000000789e+00 4.687980000000000302e+01 -2.205299999999999727e+01 5.694830000000000325e+01 -1.485139999999999905e+00 2.580640000000000001e+01 -1.887589999999999790e+01 -1.080090000000000039e+01 -1.076169999999999938e+01 4.002890000000000015e+01 -7.296369999999999800e-01 5.059140000000000192e+00 -1.493319999999999936e+01 -3.030260000000000176e-01 1.216150000000000064e+00 -3.831739999999999924e+00 -4.554750000000000187e-01 1.994269999999999987e+00 -6.294109999999999872e+00 -1.907809999999999784e-01 5.606590000000000185e-01 1.949950000000000072e+00 -1.897369999999999890e-01 5.849590000000000067e-01 4.615970000000000795e+00 -6.845830000000000304e+00 9.841920000000000002e+00 3.780519999999999925e+01 -9.541650000000001519e-01 -1.104909999999999926e+01 2.405219999999999914e+00 5.031269999999999243e+01 -4.462339999999998952e+01 8.218469999999999942e+00 6.359259999999999025e+01 -1.525960000000000072e+01 1.040460000000000207e+02 -2.713159999999999883e+01 5.833800000000000097e+00 5.788780000000000037e+00 2.818400000000000105e+01 1.072940000000000005e+01 1.915919999999999845e+01 -9.863490000000001247e-16 1.272220000000000308e-14 -1.000000000000000000e+01 4.351259999999999633e-15 6.361110000000001319e-15 -1.000000000000000000e+01 1.987849999999999356e-16 3.180549999999999982e-15 7.553820000000000144e-15 1.998179999999999978e+01 8.718970000000000331e-01 2.396399999999999864e+00 2.400000000000000000e+01 -3.180549999999999193e-15 -3.180550000000000771e-15 2.000000000000000000e+01 -6.361110000000000530e-15 -1.272219999999999677e-14 1.987849999999999356e-16 3.180549999999999982e-15 7.553820000000000144e-15 2.000000000000000000e+01 -6.361109999999998163e-15 1.272220000000000151e-14 2.400000000000000000e+01 6.361109999999999741e-15 -1.272219999999999677e-14 2.000000000000000000e+01 -6.361109999999999741e-15 -1.590280000000000116e-14 1.987849999999999356e-16 3.180549999999999982e-15 7.553820000000000144e-15 1.997479999999999833e+01 -1.025649999999999951e+00 -2.819380000000000219e+00 2.400000000000000000e+01 -3.180549999999999982e-15 -3.180550000000000771e-15 2.000000000000000000e+01 -4.770830000000000256e-15 -1.908330000000000147e-14 1.987849999999999356e-16 3.180549999999999982e-15 7.553820000000000144e-15 1.978150000000000119e+01 -3.009479999999999933e+00 -8.305149999999999366e+00 2.400000000000000000e+01 6.361109999999999741e-15 -3.180550000000000771e-15 2.000000000000000000e+01 -1.590280000000000471e-15 -1.908330000000000147e-14 3.786270000000000024e+00 -1.861990000000000123e+01 -1.360370000000000168e+01 -8.191919999999974777e-02 3.901979999999998938e+01 -1.305589999999999691e+02 3.164689999999999159e+01 -8.481590000000000629e+00 -1.451769999999999960e+01 3.871920000000000073e+01 5.422329999999998762e+00 3.454680000000000462e+01 -2.818400000000000105e+01 1.072940000000000005e+01 -1.915919999999999845e+01 8.141690000000000761e-15 -9.541660000000000512e-15 1.000000000000000000e+01 4.351259999999999633e-15 -6.361109999999999741e-15 1.000000000000000000e+01 -6.361109999999999741e-15 -7.951390000000001198e-16 1.590280000000000274e-15 -1.998179999999999978e+01 8.718970000000000331e-01 -2.396399999999999864e+00 -2.400000000000000000e+01 0.000000000000000000e+00 -1.590280000000002641e-15 -2.000000000000000000e+01 0.000000000000000000e+00 -4.770830000000000256e-15 -6.361109999999999741e-15 -7.951390000000001198e-16 1.590280000000000274e-15 -2.000000000000000000e+01 1.590280000000000077e-15 -4.770830000000000256e-15 -2.400000000000000000e+01 0.000000000000000000e+00 4.770830000000001834e-15 -2.000000000000000000e+01 -1.590279999999999880e-15 2.186630000000000587e-15 -6.361109999999999741e-15 -7.951390000000001198e-16 1.590280000000000274e-15 -1.997479999999999833e+01 -1.025649999999999951e+00 2.819380000000000219e+00 -2.400000000000000000e+01 4.770830000000000256e-15 7.951389999999983449e-16 -2.000000000000000000e+01 0.000000000000000000e+00 -1.192710000000000403e-15 -6.361109999999999741e-15 -7.951390000000001198e-16 1.590280000000000274e-15 -1.978150000000000119e+01 -3.009479999999999933e+00 8.305149999999999366e+00 -2.400000000000000000e+01 -4.770830000000000256e-15 3.975690000000000513e-15 -2.000000000000000000e+01 -2.385420000000000411e-15 -3.578119999999999853e-15
1.597163400000000365e+03 8.978619999999999379e+01 2.078529999999999944e+01 2.072210000000000107e+01 -2.391179999999999595e+01 -1.763400000000000034e+02 2.518990000000000151e+01 -4.658579999999999899e+01 2.490670000000000073e+01 2.249800000000000688e-01 1.249970000000000070e+01 1.595749999999999780e+01 9.474650000000002237e+00 8.020989999999997622e+00 5.420170000000000599e+00 4.689170000000000726e+01 -2.217970000000000397e+01 5.695799999999999841e+01 -1.427790000000000115e+00 2.582410000000000139e+01 -1.894010000000000105e+01 -1.079229999999999912e+01 -1.073649999999999771e+01 4.000539999999999452e+01 -7.022600000000001064e-01 5.065380000000001104e+00 -1.500090000000000146e+01 -2.968600000000000128e-01 1.219000000000000083e+00 -3.848840000000000483e+00 -4.449420000000000042e-01 1.999530000000000030e+00 -6.320820000000000327e+00 -1.899710000000000565e-01 5.616330000000000489e-01 1.950520000000000254e+00 -1.903550000000000242e-01 5.854129999999998502e-01 4.704550000000000232e+00 -6.878250000000000419e+00 9.878109999999999502e+00 3.782780000000001053e+01 -9.967300000000001159e-01 -1.104580000000000162e+01 2.618300000000000516e+00 5.063169999999999504e+01 -4.441710000000000491e+01 8.373290000000000788e+00 6.353009999999999025e+01 -1.523370000000000246e+01 1.039520000000000124e+02 -2.723760000000000403e+01 5.725609999999999644e+00 5.809720000000000439e+00 2.818400000000000105e+01 1.072940000000000005e+01 1.915919999999999845e+01 3.790440000000000116e-15 3.180549999999999982e-15 -1.000000000000000000e+01 -5.608179999999998766e-16 -3.180550000000000376e-15 -1.000000000000000000e+01 1.192710000000000206e-15 0.000000000000000000e+00 4.174480000000000732e-15 1.998179999999999978e+01 8.718970000000000331e-01 2.396399999999999864e+00 2.400000000000000000e+01 0.000000000000000000e+00 6.361109999999999741e-15 2.000000000000000000e+01 -1.431249999999999897e-14 0.000000000000000000e+00 1.192710000000000206e-15 0.000000000000000000e+00 4.174480000000000732e-15 2.000000000000000000e+01 3.180549999999999982e-15 4.770830000000000256e-15 2.400000000000000000e+01 -6.361109999999998952e-15 9.541660000000000512e-15 2.000000000000000000e+01 -9.541660000000000512e-15 -9.541659999999998934e-15 1.192710000000000206e-15 0.000000000000000000e+00 4.174480000000000732e-15 1.997479999999999833e+01 -1.025649999999999951e+00 -2.819380000000000219e+00 2.400000000000000000e+01 -3.180549999999999982e-15 6.361109999999999741e-15 2.000000000000000000e+01 4.770830000000000256e-15 -6.361109999999999741e-15 1.192710000000000206e-15 0.000000000000000000e+00 4.174480000000000732e-15 1.978150000000000119e+01 -3.009479999999999933e+00 -8.305149999999999366e+00 2.400000000000000000e+01 -7.951389999999999226e-15 0.000000000000000000e+00 2.000000000000000000e+01 1.272219999999999993e-14 -9.541660000000002090e-15 3.816600000000000215e+00 -1.849759999999999494e+01 -1.337809999999999988e+01 -1.434719999999998219e-01 3.902380000000000138e+01 -1.303899999999999579e+02 3.163489999999999469e+01 -8.595090000000000785e+00 -1.442849999999999788e+01 3.898190000000001021e+01 5.202069999999999972e+00 3.449470000000000169e+01 -2.818400000000000105e+01 1.072940000000000005e+01 -1.915919999999999845e+01 2.668799999999999506e-15 3.180550000000000376e-15 1.000000000000000000e+01 7.020059999999999927e-15 -3.180549999999999587e-15 1.000000000000000000e+01 0.000000000000000000e+00 -1.590279999999999880e-15 -1.590280000000000471e-15 -1.998179999999999978e+01 8.718970000000000331e-01 -2.396399999999999864e+00 -2.400000000000000000e+01 0.000000000000000000e+00 8.746530000000000547e-15 -2.000000000000000000e+01 3.180549999999999587e-15 3.975690000000002091e-15 0.000000000000000000e+00 -1.590279999999999880e-15 -1.590280000000000471e-15 -2.000000000000000000e+01 -3.180549999999999982e-15 1.908329999999999831e-14 -2.400000000000000000e+01 -6.361109999999999741e-15 7.156249999999999484e-15 -2.000000000000000000e+01 -1.590280000000000274e-15 6.361109999999999741e-15 0.000000000000000000e+00 -1.590279999999999880e-15 -1.590280000000000471e-15 -1.997479999999999833e+01 -1.025649999999999951e+00 2.819380000000000219e+00 -2.400000000000000000e+01 0.000000000000000000e+00 1.590279999999999485e-15 -2.000000000000000000e+01 -3.180549999999999982e-15 2.584199999999999669e-15 0.000000000000000000e+00 -1.590279999999999880e-15 -1.590280000000000471e-15 -1.978150000000000119e+01 -3.009479999999999933e+00 8.305149999999999366e+00 -2.400000000000000000e+01 -3.975689999999998936e-15 5.963539999999999081e-15 -2.000000000000000000e+01 -7.951390000000000212e-16 3.776910000000000861e-15
1.597161299999999756e+03 8.978740000000001942e+01 2.080440000000000467e+01 2.088309999999999889e+01 -2.387010000000000076e+01 -1.758429999999999893e+02 2.488190000000000168e+01 -4.675329999999999586e+01 2.444010000000000105e+01 2.563800000000000523e-01 1.255929999999999858e+01 1.585389999999999944e+01 9.476020000000000110e+00 7.965669999999999362e+00 5.387899999999999245e+00 4.692099999999999937e+01 -2.252910000000000323e+01 5.672619999999999862e+01 -1.365560000000000107e+00 2.584919999999999973e+01 -1.901470000000000127e+01 -1.078200000000000003e+01 -1.071240000000000059e+01 3.997560000000000002e+01 -6.005120000000000458e-01 5.101169999999999760e+00 -1.514100000000000179e+01 -2.733360000000000234e-01 1.233460000000000001e+00 -3.883750000000000036e+00 -4.051449999999999774e-01 2.025310000000000166e+00 -6.375360000000000582e+00 -1.891600000000000226e-01 5.625790000000000513e-01 1.950669999999999904e+00 -1.895110000000000128e-01 5.860159999999999814e-01 4.643180000000000085e+00 -6.873750000000000249e+00 9.907750000000000057e+00 3.782059999999999889e+01 -1.050180000000000113e+00 -1.105450000000000266e+01 2.664640000000000342e+00 5.098010000000000019e+01 -4.418670000000000186e+01 8.510110000000000952e+00 6.345280000000001053e+01 -1.520730000000000004e+01 1.038599999999999994e+02 -2.734989999999999810e+01 5.596540000000000070e+00 5.816009999999999458e+00 2.818400000000000105e+01 1.072940000000000005e+01 1.915919999999999845e+01 3.229620000000000205e-15 0.000000000000000000e+00 -1.000000000000000000e+01 2.107979999999999989e-15 -6.361110000000000530e-15 -1.000000000000000000e+01 0.000000000000000000e+00 3.180549999999999587e-15 1.590280000000000274e-15 1.998179999999999978e+01 8.718970000000000331e-01 2.396399999999999864e+00 2.400000000000000000e+01 3.180549999999999982e-15 0.000000000000000000e+00 2.000000000000000000e+01 -4.770830000000000256e-15 0.000000000000000000e+00 0.000000000000000000e+00 3.180549999999999587e-15 1.590280000000000274e-15 2.000000000000000000e+01 -3.180550000000000771e-15 6.361109999999999741e-15 2.400000000000000000e+01 3.180550000000000376e-15 -9.541660000000000512e-15 2.000000000000000000e+01 1.590279999999999485e-15 -6.361109999999999741e-15 0.000000000000000000e+00 3.180549999999999587e-15 1.590280000000000274e-15 1.997479999999999833e+01 -1.025649999999999951e+00 -2.819380000000000219e+00 2.400000000000000000e+01 -3.180549999999999982e-15 -6.361109999999999741e-15 2.000000000000000000e+01 -3.180550000000000376e-15 -6.361109999999999741e-15 0.000000000000000000e+00 3.180549999999999587e-15 1.590280000000000274e-15 1.978150000000000119e+01 -3.009479999999999933e+00 -8.305149999999999366e+00 2.400000000000000000e+01 -4.770830000000000256e-15 -6.361109999999999741e-15 2.000000000000000000e+01 9.541660000000002090e-15 -1.272219999999999993e-14 3.826169999999999405e+00 -1.837079999999999558e+01 -1.332189999999999941e+01 -2.051389999999999603e-01 3.900990000000000180e+01 -1.302089999999999748e+02 3.160679999999999978e+01 -8.716389999999998750e+00 -1.433020000000000138e+01 3.925150000000000716e+01 4.957089999999999996e+00 3.443130000000000024e+01 -2.818400000000000105e+01 1.072940000000000005e+01 -1.915919999999999845e+01 4.351259999999999633e-15 -6.361109999999999741e-15 1.000000000000000000e+01 -3.790440000000000116e-15 3.180549999999999982e-15 1.000000000000000000e+01 3.180550000000000376e-15 2.385420000000000017e-15 1.590279999999999880e-15 -1.998179999999999978e+01 8.718970000000000331e-01 -2.396399999999999864e+00 -2.400000000000000000e+01 -3.180549999999999982e-15 7.951389999999999226e-15 -2.000000000000000000e+01 0.000000000000000000e+00 1.192710000000000403e-15 3.180550000000000376e-15 2.385420000000000017e-15 1.590279999999999880e-15 -2.000000000000000000e+01 -1.590280000000000077e-15 2.067359999999999735e-14 -2.400000000000000000e+01 -3.180549999999999587e-15 1.113189999999999773e-14 -2.000000000000000000e+01 1.590280000000000274e-15 -6.361109999999998952e-15 3.180550000000000376e-15 2.385420000000000017e-15 1.590279999999999880e-15 -1.997479999999999833e+01 -1.025649999999999951e+00 2.819380000000000219e+00 -2.400000000000000000e+01 -3.180550000000000771e-15 1.033680000000000183e-14 -2.000000000000000000e+01 0.000000000000000000e+00 -1.192710000000000403e-15 3.180550000000000376e-15 2.385420000000000017e-15 1.590279999999999880e-15 -1.978150000000000119e+01 -3.009479999999999933e+00 8.305149999999999366e+00 -2.400000000000000000e+01 -4.770829999999998678e-15 9.144089999999998274e-15 -2.000000000000000000e+01 -2.385420000000000017e-15 2.882380000000000109e-15
